<?xml version="1.0" encoding="utf-8"?>
<!-- Generator: Adobe Illustrator 24.0.1, SVG Export Plug-In . SVG Version: 6.00 Build 0)  -->
<svg version="1.1"
	 id="svg24" inkscape:version="1.0 (4035a4fb49, 2020-05-01)" sodipodi:docname="wownero.svg" xmlns:cc="http://creativecommons.org/ns#" xmlns:dc="http://purl.org/dc/elements/1.1/" xmlns:inkscape="http://www.inkscape.org/namespaces/inkscape" xmlns:rdf="http://www.w3.org/1999/02/22-rdf-syntax-ns#" xmlns:sodipodi="http://sodipodi.sourceforge.net/DTD/sodipodi-0.dtd" xmlns:svg="http://www.w3.org/2000/svg"
	 xmlns="http://www.w3.org/2000/svg" xmlns:xlink="http://www.w3.org/1999/xlink" x="0px" y="0px" viewBox="0 0 600 600"
	 style="enable-background:new 0 0 600 600;" xml:space="preserve">
<style type="text/css">
	.st0{fill:#1A1A1A;}
</style>
<sodipodi:namedview  bordercolor="#666666" borderopacity="1" gridtolerance="10" guidetolerance="10" id="namedview26" inkscape:current-layer="svg24" inkscape:cx="1087.9091" inkscape:cy="270.07299" inkscape:pageopacity="0" inkscape:pageshadow="2" inkscape:window-height="715" inkscape:window-maximized="1" inkscape:window-width="1360" inkscape:window-x="-8" inkscape:window-y="54" inkscape:zoom="0.274" objecttolerance="10" pagecolor="#ffffff" showgrid="false">
	</sodipodi:namedview>
<g>
	<path class="st0" d="M464.5,236.9C451.6,459.1,451.6,459,451.6,459L300.2,292L149.5,458.4c0,0-12.2-212-12.7-221.5H43.4
		c-5.4,21.1-8.2,43-8.2,65.9C35.2,449,153.8,567.6,300,567.6S564.8,449,564.8,302.8c0-22.7-2.5-44.8-7.8-65.9H464.5z"/>
	<path class="st0" d="M576.1,183.3c-15.1-35.7-36.7-67.7-64.2-95.3c-27.6-27.6-59.5-49.1-95.3-64.2c-37-15.7-76.2-23.6-116.7-23.6
		s-79.7,7.9-116.7,23.6C147.5,38.9,115.5,60.5,87.9,88c-27.6,27.6-49.1,59.5-64.2,95.3C8,220.3,0.1,259.5,0.1,300
		c0,40.5,7.9,79.7,23.6,116.7c15.1,35.7,36.7,67.7,64.2,95.3c27.6,27.6,59.5,49.1,95.3,64.2c37,15.7,76.2,23.6,116.7,23.6
		s79.7-7.9,116.7-23.6c35.7-15.1,67.7-36.7,95.3-64.2c27.6-27.6,49.1-59.5,64.2-95.3c15.7-37,23.6-76.2,23.6-116.7
		C599.7,259.5,591.7,220.3,576.1,183.3z M300,11.9c125.5,0,232.5,80.3,271.9,192.7c-48.7,0-95.9,0-139.2,0
		c-3.5,60.8-7.6,122.1-10.4,172.2L299.9,240.7L177.4,376.6c-3.2-58.7-9.8-172.2-9.8-172.2H28.1C67.7,92.3,174.7,11.9,300,11.9z
		 M300,587.5c-158.9,0-288.1-129.2-288.1-288.1c0-29.3,4.4-57.7,12.6-84.4h132.8l10.7,187.7c0,0,127.3-141.3,131.6-146.2
		c7.3,8.6,118,130.5,131.8,146.6L442.3,215h133.1c8.1,26.6,12.6,55.3,12.6,84.4C588.1,458.3,458.9,587.5,300,587.5z"/>
</g>
<g id="Brand">
</g>
</svg>
