<svg id="svg24" xmlns="http://www.w3.org/2000/svg" viewBox="0 0 600.17 600.17"><defs><style>.cls-1{fill:#1a1a1a;}</style></defs><title>transparentwownerologo</title><g id="Identity"><g id="g10"><path class="cls-1" d="M464.66,236.71l-12.91,222.5L300.18,292,149.36,458.57S137.18,246.3,136.63,236.8l-93.45-.28a265.57,265.57,0,0,0-8.3,66.24c0,146.4,118.72,265.12,265.12,265.12S565.12,449.16,565.12,302.76a271,271,0,0,0-7.93-66.33Z" transform="translate(0.18 0.09)"/><path class="cls-1" d="M576.38,183.2a300.21,300.21,0,0,0-552.94,0A300.36,300.36,0,0,0,183.12,576.46,300.36,300.36,0,0,0,576.38,416.78a300.66,300.66,0,0,0,0-233.58ZM300,11.62c125.73,0,232.74,80.44,272.13,192.89H432.84c-3.51,60.89-7.57,122.05-10.43,172.23L299.91,240.58,177.31,376.65c-3.23-58.76-9.87-172.14-9.87-172.14-46.22-.18-95.39.28-139.48-.36C67.53,92.06,174.54,11.62,300,11.62Zm0,576.18c-159,0-288.37-129.33-288.37-288.36a287.73,287.73,0,0,1,12.64-84.5H157.2l10.7,187.91s127.49-141.51,131.82-146.4c7.38,8.58,118.17,130.72,132,146.77l10.79-188.1,133.21-.18a290.8,290.8,0,0,1,12.64,84.5C588.37,458.38,459,587.8,300,587.8Z" transform="translate(0.18 0.09)"/></g></g></svg>