<?xml version="1.0" encoding="utf-8"?>
<!-- Generator: Adobe Illustrator 24.0.1, SVG Export Plug-In . SVG Version: 6.00 Build 0)  -->
<svg version="1.1" id="Layer_1" xmlns="http://www.w3.org/2000/svg" xmlns:xlink="http://www.w3.org/1999/xlink" x="0px" y="0px"
	 viewBox="0 0 2451.7 650.4" style="enable-background:new 0 0 2451.7 650.4;" xml:space="preserve">
<style type="text/css">
	.st0{fill:none;}
	.st1{fill:#FF2AD4;}
</style>
<title>Asset 1</title>
<g id="Layer_2_1_">
	<g id="Brand">
		<path class="st0" d="M2136.5,279.8c-2.6-3.7-6.3-6.6-10.6-8.1c-4.4-1.7-6.4-2.5-17.2-2.5h-54.2V317h55.9c14.2,0,16.7-1.8,22.1-5.6
			l0,0c5.3-3.7,8-9.8,8-18.4C2140.6,288.4,2139.2,283.7,2136.5,279.8z"/>
		<path class="st0" d="M2329.1,267.1c-20.6,0-37.9,7.2-51.9,21.5s-21,32.5-21.1,54.6c0,24.6,8.8,44.1,26.5,58.4
			c13.2,11,30,17,47.2,16.8c20.1,0,37.2-7.2,51.3-21.7l0,0c14.2-14.6,21.3-32.5,21.2-53.7s-7.1-39.2-21.4-53.8
			C2366.7,274.5,2349.5,267.1,2329.1,267.1z"/>
		<path class="st0" d="M1137.3,267.1c-20.6,0-37.9,7.2-51.9,21.5s-21,32.5-21.1,54.6c0,24.6,8.8,44.1,26.5,58.4
			c13.2,11,30,17,47.2,16.8c20.1,0,37.2-7.2,51.3-21.7l0,0c14.2-14.6,21.2-32.5,21.2-53.7s-7.1-39.2-21.4-53.8
			C1174.9,274.5,1157.7,267.1,1137.3,267.1z"/>
		<path class="st1" d="M2410.7,259.8L2410.7,259.8c-22.6-22.8-49.7-34.2-81.2-34.2c-41.5,0-79.8,22.2-100.6,58.1
			c-10.3,17.9-15.6,38.1-15.4,58.7c0,31.8,11.1,59.2,33.2,82.3s49.8,34.6,83.2,34.6c31.9,0,59-11.2,81.4-33.7s33.5-50,33.5-82.5
			C2444.7,310.5,2433.3,282.7,2410.7,259.8z M2381.1,396.7L2381.1,396.7c-14.1,14.5-31.2,21.8-51.3,21.7c-17.2,0.2-34-5.8-47.2-16.8
			c-17.7-14.3-26.5-33.8-26.5-58.4c0-22.1,7-40.3,21.1-54.6c14-14.3,31.3-21.5,51.9-21.5c20.3,0,37.6,7.3,51.9,22
			s21.3,32.6,21.4,53.8C2402.3,364.2,2395.2,382.1,2381.1,396.7z"/>
		<path class="st1" d="M2172.5,332.1c7.4-10.4,11-23.1,11-38.5c0-14.6-3.3-27.3-10-38c-6.2-10.2-15.4-18.2-26.4-22.9
			c-11-4.6-29.4-6.9-55.2-6.9H2010v233.6h44.5v-98.9h38.8l52.6,98.9h48.6l-55.3-103.9C2154.1,350.2,2165.1,342.4,2172.5,332.1z
			 M2132.5,311.5L2132.5,311.5c-5.4,3.7-7.9,5.6-22.1,5.6h-55.9v-47.8h54.2c10.9,0,12.8,0.8,17.2,2.5c4.3,1.5,8,4.4,10.6,8.1
			c2.7,3.9,4.1,8.5,4,13.3C2140.5,301.7,2137.8,307.8,2132.5,311.5z"/>
		<polygon class="st1" points="1810.8,459.3 1962.3,459.3 1962.3,415.6 1855,415.6 1855,359.8 1962.3,359.8 1962.3,317 1855,317 
			1855,269.2 1962.3,269.2 1962.3,225.7 1810.8,225.7 		"/>
		<polygon class="st1" points="1718.9,379.4 1618.6,225.7 1576.1,225.7 1576.1,459.3 1620.5,459.3 1620.5,306.1 1720.6,459.3 
			1763.3,459.3 1763.3,225.7 1718.9,225.7 		"/>
		<path class="st1" d="M1218.9,259.8c-22.6-22.8-49.7-34.2-81.2-34.2c-41.5,0.1-79.8,22.2-100.6,58.1
			c-10.3,17.9-15.6,38.1-15.4,58.7c0,31.8,11.1,59.2,33.2,82.3s49.8,34.6,83.2,34.6c31.9,0,59-11.2,81.3-33.7
			c22.4-22.5,33.5-50,33.5-82.5C1252.9,310.5,1241.5,282.7,1218.9,259.8L1218.9,259.8z M1189.3,396.7L1189.3,396.7
			c-14.1,14.5-31.2,21.8-51.3,21.7c-17.2,0.2-34-5.7-47.2-16.7c-17.7-14.3-26.5-33.8-26.5-58.4c0-22.1,7-40.3,21.1-54.6
			s31.3-21.5,51.9-21.5c20.4,0,37.6,7.3,51.9,22c14.2,14.7,21.3,32.6,21.4,53.8C1210.5,364.2,1203.4,382.1,1189.3,396.7z"/>
		<polygon class="st1" points="936.1,373.2 887.1,225.7 847.9,225.7 798.2,373.2 773.1,225.7 730.2,225.7 769.5,459.3 812.4,459.3 
			867.2,296.3 921.2,459.3 964.8,459.3 1005.1,225.7 961.7,225.7 		"/>
		<polygon class="st1" points="1474.4,373.2 1425.3,225.7 1386.1,225.7 1336.4,373.2 1311.3,225.7 1268.4,225.7 1307.8,459.3 
			1350.7,459.3 1405.5,296.3 1459.5,459.3 1503,459.3 1543.4,225.7 1500,225.7 		"/>
	</g>
</g>
<g>
	<path class="st1" d="M609.3,203.4c-15.7-37-38-70.2-66.5-98.7c-28.5-28.5-61.7-50.9-98.7-66.5c-38.3-16.2-79-24.4-120.8-24.4
		S240.7,22,202.4,38.2c-37,15.7-70.2,38-98.7,66.5c-28.5,28.5-50.9,61.7-66.5,98.7c-16.2,38.3-24.4,79-24.4,120.8
		c0,41.9,8.2,82.6,24.4,120.8c15.7,37,38,70.2,66.5,98.7s61.7,50.9,98.7,66.5c38.3,16.2,79,24.4,120.8,24.4s82.6-8.2,120.8-24.4
		c37-15.7,70.2-38,98.7-66.5c28.5-28.5,50.9-61.7,66.5-98.7c16.2-38.3,24.4-79,24.4-120.8C633.8,282.4,625.5,241.7,609.3,203.4z
		 M323.2,25.8c130.2,0,240.9,83.3,281.6,199.6c-50.6,0-99.3,0-144.2,0c-3.6,63-7.8,126.3-10.8,178.2L323.2,262.8L196.2,403.7
		c-3.3-60.8-10.2-178.4-10.2-178.4H41.6C82.6,109.1,193.5,25.8,323.2,25.8z M323.2,622.1c-164.6,0-298.4-133.9-298.4-298.4
		c0-30.3,4.6-59.8,13.1-87.5h137.5l11.1,194.5c0,0,131.9-146.5,136.4-151.6c7.7,8.9,122.3,135.3,136.6,151.9l11.2-194.8h137.9
		c8.4,27.5,13.1,57.3,13,87.5C621.7,488.2,487.8,622.1,323.2,622.1z"/>
	<path class="st1" d="M493.6,258.8C480.3,489.1,480.3,489,480.3,489L323.3,315.9L167.3,488.4c0,0-12.6-219.6-13.2-229.5H57.3
		c-5.6,21.9-8.5,44.6-8.5,68.3c0,151.6,122.9,274.4,274.4,274.4s274.4-122.9,274.3-274.4c0-23.5-2.6-46.5-8.1-68.3H493.6z"/>
</g>
</svg>
