<svg xmlns="http://www.w3.org/2000/svg" viewBox="0 0 2451.66 650.43"><defs><style>.cls-1{fill:#fc0;}.cls-2{fill:#ff2ad4;}.cls-3{fill:#fff;}.cls-4{fill:none;}</style></defs><title>Asset 1</title><g id="Layer_2" data-name="Layer 2"><g id="Identity"><path class="cls-1" d="M181.54,221.7l10.72,186.63L325.1,260.82,457.9,408.57s9.62-158.06,11.28-186.94c47.06,0,98.15,0,151,0-42.71-121.85-158.72-209-295-209-136,0-252,87.27-294.89,208.75C50.17,221.63,180.22,221.7,181.54,221.7Z"/><path class="cls-2" d="M624.87,198.62a326.26,326.26,0,1,0,25.56,126.59A324.18,324.18,0,0,0,624.87,198.62Zm-299.66-186c136.26,0,252.27,87.2,295,209.05-52.86,0-104,0-151,0-3.81,66-8.22,132.29-11.26,186.71L325.1,260.82,192.21,408.34c-3.48-63.66-10.67-186.64-10.67-186.64-50.07-.14-103.44.35-151.22-.37C73.24,99.85,189.22,12.58,325.21,12.58Z"/><path class="cls-3" d="M624.13,233l-144.39.21L468.06,437.09C453,419.72,333,287.26,325,278c-4.69,5.28-143,158.69-143,158.69L170.45,233H26.28a311.76,311.76,0,0,0-13.7,91.64c0,172.39,140.24,312.63,312.63,312.63S637.85,497,637.85,324.63A315.7,315.7,0,0,0,624.13,233ZM325.21,615.59c-158.73,0-287.42-128.68-287.42-287.42a288.23,288.23,0,0,1,9.05-71.83l101.34.32C148.78,267,162,497.05,162,497.05l163.48-180.6L489.77,497.73l14-241.19,100.3-.25a293.5,293.5,0,0,1,8.58,71.88C612.63,486.91,484,615.59,325.21,615.59Z"/></g><g id="Brand"><path class="cls-4" d="M2143.54,287.15a22,22,0,0,0-10.62-8.08c-4.45-1.68-6.37-2.49-17.23-2.49h-54.16v47.81h55.89c14.2,0,16.74-1.84,22.11-5.58h0q8-5.54,8-18.38A22.32,22.32,0,0,0,2143.54,287.15Z"/><path class="cls-4" d="M2336.08,274.47q-30.91,0-51.9,21.48t-21.07,54.6q0,36.94,26.48,58.4a72.52,72.52,0,0,0,47.2,16.79q30.15,0,51.29-21.74h0q21.26-21.86,21.23-53.72t-21.38-53.81Q2366.64,274.48,2336.08,274.47Z"/><path class="cls-4" d="M1144.28,274.47q-30.91,0-51.9,21.48t-21.07,54.6q0,36.94,26.49,58.4a72.48,72.48,0,0,0,47.2,16.79q30.15,0,51.29-21.74h0q21.24-21.86,21.22-53.72t-21.37-53.81Q1174.84,274.48,1144.28,274.47Z"/><path class="cls-2" d="M2417.69,267.18h0Q2383.75,233,2336.49,233a116.4,116.4,0,0,0-100.61,58.1,115.73,115.73,0,0,0-15.44,58.72q0,47.64,33.17,82.28t83.18,34.65q47.8,0,81.36-33.72t33.51-82.48Q2451.66,301.41,2417.69,267.18ZM2388.08,404h0q-21.14,21.76-51.29,21.74a72.52,72.52,0,0,1-47.2-16.79q-26.49-21.45-26.48-58.4,0-33.09,21.07-54.6t51.9-21.48q30.52,0,51.85,22t21.38,53.81Q2409.31,382.2,2388.08,404Z"/><path class="cls-2" d="M2179.53,339.41c7.38-10.35,11-23.15,11-38.54,0-14.59-3.3-27.28-10-38A56.75,56.75,0,0,0,2154.12,240q-16.44-6.91-55.2-6.93h-81.85V466.7h44.46V367.76h38.8l52.59,98.94h48.63l-55.3-103.87Q2168.45,354.85,2179.53,339.41Zm-40-20.6h0c-5.37,3.74-7.91,5.58-22.11,5.58h-55.89V276.58h54.16c10.86,0,12.78.81,17.23,2.49a22,22,0,0,1,10.62,8.08,22.32,22.32,0,0,1,4,13.28Q2147.5,313.27,2139.53,318.81Z"/><polygon class="cls-2" points="1817.79 466.66 1969.29 466.66 1969.29 422.95 1861.98 422.95 1861.98 367.12 1969.29 367.12 1969.29 324.35 1861.98 324.35 1861.98 276.52 1969.29 276.52 1969.29 233 1817.79 233 1817.79 466.66"/><polygon class="cls-2" points="1725.87 386.74 1625.63 233 1583.07 233 1583.07 466.65 1627.52 466.65 1627.52 313.39 1727.6 466.65 1770.32 466.65 1770.32 233 1725.87 233 1725.87 386.74"/><path class="cls-2" d="M1225.89,267.18Q1191.95,233,1144.69,233a116.41,116.41,0,0,0-100.6,58.11,115.73,115.73,0,0,0-15.44,58.72q0,47.64,33.16,82.28T1145,466.75q47.8,0,81.35-33.72t33.52-82.48q0-49.14-34-83.37ZM1196.29,404h0q-21.15,21.76-51.29,21.74A72.48,72.48,0,0,1,1097.8,409q-26.5-21.45-26.49-58.4,0-33.09,21.07-54.6t51.9-21.48q30.53,0,51.86,22t21.37,53.81Q1217.51,382.2,1196.29,404Z"/><polygon class="cls-2" points="943.14 380.56 894.08 232.99 854.88 232.99 805.16 380.56 780.07 232.99 737.18 232.99 776.55 466.65 819.43 466.65 874.24 303.68 928.24 466.65 971.77 466.65 1012.1 232.99 968.73 232.99 943.14 380.56"/><polygon class="cls-2" points="1481.4 380.56 1432.35 232.99 1393.14 232.99 1343.43 380.56 1318.33 232.99 1275.44 232.99 1314.81 466.65 1357.69 466.65 1412.51 303.68 1466.5 466.65 1510.03 466.65 1550.37 232.99 1507 232.99 1481.4 380.56"/></g></g></svg>