<?xml version="1.0" encoding="UTF-8" standalone="no"?>
<svg
   xmlns:dc="http://purl.org/dc/elements/1.1/"
   xmlns:cc="http://creativecommons.org/ns#"
   xmlns:rdf="http://www.w3.org/1999/02/22-rdf-syntax-ns#"
   xmlns:svg="http://www.w3.org/2000/svg"
   xmlns="http://www.w3.org/2000/svg"
   xmlns:sodipodi="http://sodipodi.sourceforge.net/DTD/sodipodi-0.dtd"
   xmlns:inkscape="http://www.inkscape.org/namespaces/inkscape"
   xml:space="preserve"
   style="enable-background:new 0 0 600 600;"
   viewBox="0 0 600 600"
   y="0px"
   x="0px"
   sodipodi:docname="wownero.svg"
   inkscape:version="1.0 (4035a4fb49, 2020-05-01)"
   id="svg24"
   version="1.1"><metadata
   id="metadata14"><rdf:RDF><cc:Work
       rdf:about=""><dc:format>image/svg+xml</dc:format><dc:type
         rdf:resource="http://purl.org/dc/dcmitype/StillImage" /><dc:title></dc:title></cc:Work></rdf:RDF></metadata><defs
   id="defs12" />
<style
   id="style2"
   type="text/css">
	.st0{fill:#FFCC00;}
	.st1{fill:#FF2AD4;}
	.st2{fill:#FFFFFF;}
</style>
<sodipodi:namedview
   inkscape:document-rotation="0"
   showgrid="false"
   pagecolor="#ffffff"
   objecttolerance="10"
   inkscape:zoom="0.62906509"
   inkscape:window-y="54"
   inkscape:window-x="-8"
   inkscape:window-width="1360"
   inkscape:window-maximized="1"
   inkscape:window-height="715"
   inkscape:pageshadow="2"
   inkscape:pageopacity="0"
   inkscape:cy="210.56242"
   inkscape:cx="31.498725"
   inkscape:current-layer="svg24"
   id="namedview26"
   guidetolerance="10"
   gridtolerance="10"
   borderopacity="1"
   bordercolor="#666666">
	</sodipodi:namedview>
<g
   transform="matrix(0.92222564,0,0,0.92222564,-442.01357,-627.75902)"
   id="Identity">
	<g
   id="g10">
		<path
   d="m 660.8,902.4 10.7,186.6 132.8,-147.5 132.8,147.8 c 0,0 9.6,-158.1 11.3,-186.9 47.1,0 98.2,0 151,0 -42.7,-121.9 -158.7,-209.1 -295,-209.1 -136,0 -252,87.3 -294.9,208.8 20,0.2 150,0.3 151.3,0.3 z"
   class="st0"
   id="path4" />
		<path
   d="m 1104.1,879.3 c -16.4,-38.7 -39.8,-73.5 -69.7,-103.4 -29.9,-29.9 -64.6,-53.3 -103.4,-69.7 -40.1,-17 -82.7,-25.6 -126.6,-25.6 -43.9,0 -86.5,8.6 -126.6,25.6 -38.7,16.4 -73.5,39.8 -103.4,69.7 -29.9,29.9 -53.3,64.6 -69.7,103.4 -17,40.1 -25.6,82.7 -25.6,126.6 0,43.9 8.6,86.5 25.6,126.6 16.4,38.7 39.8,73.5 69.7,103.4 29.9,29.9 64.6,53.3 103.4,69.7 40.1,17 82.7,25.6 126.6,25.6 43.9,0 86.5,-8.6 126.6,-25.6 38.7,-16.4 73.5,-39.8 103.4,-69.7 29.9,-29.9 53.3,-64.6 69.7,-103.4 17,-40.1 25.6,-82.7 25.6,-126.6 0,-43.9 -8.6,-86.5 -25.6,-126.6 z m -299.6,-186 c 136.3,0 252.3,87.2 295,209.1 -52.9,0 -104,0 -151,0 -3.8,66 -8.2,132.3 -11.3,186.7 L 804.4,941.5 671.5,1089 C 668,1025.3 660.8,902.4 660.8,902.4 610.7,902.2 557.4,902.7 509.6,902 552.5,780.5 668.5,693.3 804.5,693.3 Z"
   class="st1"
   id="path6" />
		<path
   d="M 1103.4,913.7 959,913.9 947.3,1117.8 C 932.3,1100.4 812.2,968 804.2,958.7 799.5,964 661.3,1117.4 661.3,1117.4 L 649.7,913.7 H 505.6 c -8.9,29 -13.7,59.8 -13.7,91.6 0,172.4 140.2,312.6 312.6,312.6 172.4,0 312.6,-140.3 312.6,-312.6 0,-31.6 -4.9,-62.8 -13.7,-91.6 z m -298.9,382.6 c -158.7,0 -287.4,-128.7 -287.4,-287.4 0,-24.8 3.1,-48.9 9,-71.8 l 101.3,0.3 c 0.6,10.3 13.8,240.4 13.8,240.4 L 804.7,997.2 969,1178.5 c 0,0 0,0 14,-241.2 l 100.3,-0.3 c 5.8,22.8 8.6,47.3 8.6,71.9 0,158.7 -128.7,287.4 -287.4,287.4 z"
   class="st2"
   id="path8" />
	</g>
</g>
<g
   id="Brand">
</g>
</svg>
