<?xml version="1.0" encoding="utf-8"?>
<!-- Generator: Adobe Illustrator 24.0.1, SVG Export Plug-In . SVG Version: 6.00 Build 0)  -->
<svg version="1.1" id="Layer_1" xmlns="http://www.w3.org/2000/svg" xmlns:xlink="http://www.w3.org/1999/xlink" x="0px" y="0px"
	 viewBox="0 0 2451.7 650.4" style="enable-background:new 0 0 2451.7 650.4;" xml:space="preserve">
<style type="text/css">
	.st0{fill:none;}
	.st1{fill:#FF2AD4;}
	.st2{fill:#FFCC00;}
	.st3{fill:#FFFFFF;}
</style>
<title>Asset 1</title>
<g id="Layer_2_1_">
	<g id="Brand">
		<path class="st0" d="M2136.5,279.1c-2.6-3.7-6.3-6.6-10.6-8.1c-4.4-1.7-6.4-2.5-17.2-2.5h-54.2v47.8h55.9
			c14.2,0,16.7-1.8,22.1-5.6l0,0c5.3-3.7,8-9.8,8-18.4C2140.6,287.7,2139.2,283,2136.5,279.1z"/>
		<path class="st0" d="M2329.1,266.4c-20.6,0-37.9,7.2-51.9,21.5s-21,32.5-21.1,54.6c0,24.6,8.8,44.1,26.5,58.4
			c13.2,11,30,17,47.2,16.8c20.1,0,37.2-7.2,51.3-21.7l0,0c14.2-14.6,21.3-32.5,21.2-53.7s-7.1-39.2-21.4-53.8
			C2366.7,273.8,2349.5,266.4,2329.1,266.4z"/>
		<path class="st0" d="M1137.3,266.4c-20.6,0-37.9,7.2-51.9,21.5s-21,32.5-21.1,54.6c0,24.6,8.8,44.1,26.5,58.4
			c13.2,11,30,17,47.2,16.8c20.1,0,37.2-7.2,51.3-21.7l0,0c14.2-14.6,21.2-32.5,21.2-53.7s-7.1-39.2-21.4-53.8
			C1174.9,273.8,1157.7,266.4,1137.3,266.4z"/>
		<path class="st1" d="M2410.7,259.1L2410.7,259.1c-22.6-22.8-49.7-34.2-81.2-34.2c-41.5,0-79.8,22.2-100.6,58.1
			c-10.3,17.9-15.6,38.1-15.4,58.7c0,31.8,11.1,59.2,33.2,82.3s49.8,34.6,83.2,34.6c31.9,0,59-11.2,81.4-33.7s33.5-50,33.5-82.5
			C2444.7,309.8,2433.3,282,2410.7,259.1z M2381.1,396L2381.1,396c-14.1,14.5-31.2,21.8-51.3,21.7c-17.2,0.2-34-5.8-47.2-16.8
			c-17.7-14.3-26.5-33.8-26.5-58.4c0-22.1,7-40.3,21.1-54.6c14-14.3,31.3-21.5,51.9-21.5c20.3,0,37.6,7.3,51.9,22
			s21.3,32.6,21.4,53.8C2402.3,363.5,2395.2,381.4,2381.1,396z"/>
		<path class="st1" d="M2172.5,331.4c7.4-10.4,11-23.1,11-38.5c0-14.6-3.3-27.3-10-38c-6.2-10.2-15.4-18.2-26.4-22.9
			c-11-4.6-29.4-6.9-55.2-6.9H2010v233.6h44.5v-98.9h38.8l52.6,98.9h48.6l-55.3-103.9C2154.1,349.5,2165.1,341.7,2172.5,331.4z
			 M2132.5,310.8L2132.5,310.8c-5.4,3.7-7.9,5.6-22.1,5.6h-55.9v-47.8h54.2c10.9,0,12.8,0.8,17.2,2.5c4.3,1.5,8,4.4,10.6,8.1
			c2.7,3.9,4.1,8.5,4,13.3C2140.5,301,2137.8,307.1,2132.5,310.8z"/>
		<polygon class="st1" points="1810.8,458.6 1962.3,458.6 1962.3,414.9 1855,414.9 1855,359.1 1962.3,359.1 1962.3,316.3 
			1855,316.3 1855,268.5 1962.3,268.5 1962.3,225 1810.8,225 		"/>
		<polygon class="st1" points="1718.9,378.7 1618.6,225 1576.1,225 1576.1,458.6 1620.5,458.6 1620.5,305.4 1720.6,458.6 
			1763.3,458.6 1763.3,225 1718.9,225 		"/>
		<path class="st1" d="M1218.9,259.1c-22.6-22.8-49.7-34.2-81.2-34.2c-41.5,0.1-79.8,22.2-100.6,58.1
			c-10.3,17.9-15.6,38.1-15.4,58.7c0,31.8,11.1,59.2,33.2,82.3s49.8,34.6,83.2,34.6c31.9,0,59-11.2,81.3-33.7
			c22.4-22.5,33.5-50,33.5-82.5C1252.9,309.8,1241.5,282,1218.9,259.1L1218.9,259.1z M1189.3,396L1189.3,396
			c-14.1,14.5-31.2,21.8-51.3,21.7c-17.2,0.2-34-5.7-47.2-16.7c-17.7-14.3-26.5-33.8-26.5-58.4c0-22.1,7-40.3,21.1-54.6
			s31.3-21.5,51.9-21.5c20.4,0,37.6,7.3,51.9,22c14.2,14.7,21.3,32.6,21.4,53.8C1210.5,363.5,1203.4,381.4,1189.3,396z"/>
		<polygon class="st1" points="936.1,372.5 887.1,225 847.9,225 798.2,372.5 773.1,225 730.2,225 769.5,458.6 812.4,458.6 
			867.2,295.6 921.2,458.6 964.8,458.6 1005.1,225 961.7,225 		"/>
		<polygon class="st1" points="1474.4,372.5 1425.3,225 1386.1,225 1336.4,372.5 1311.3,225 1268.4,225 1307.8,458.6 1350.7,458.6 
			1405.5,295.6 1459.5,458.6 1503,458.6 1543.4,225 1500,225 		"/>
	</g>
</g>
<g id="Identity" transform="matrix(0.92248086,0,0,0.92248086,-442.13585,-627.93272)">
	<g id="g10_1_">
		<path id="path4_1_" class="st2" d="M680.2,924.2l11,193.6l137.7-152.8l137.5,153.1c0,0,10-163.8,11.7-193.6
			c48.7,0,101.7,0,156.4,0c-44.3-126.3-164.4-216.6-305.6-216.6c-140.8,0-261,90.4-305.5,216.3C544.1,924.4,680.2,924.2,680.2,924.2
			z"/>
		<path id="path6_1_" class="st1" d="M1139.4,900.6c-17-40.1-41.3-76.1-72.2-107.1c-31-31-66.9-55.2-107.1-72.2
			c-41.6-17.6-85.7-26.5-131.2-26.5c-45.5,0-89.6,8.9-131.2,26.5c-40.1,17-76.1,41.3-107.1,72.2c-31,31-55.2,66.9-72.2,107.1
			c-17.6,41.6-26.5,85.7-26.5,131.2s8.9,89.6,26.5,131.2c17,40.1,41.3,76.1,72.2,107.1c31,31,66.9,55.2,107.1,72.2
			c41.6,17.6,85.7,26.5,131.2,26.5c45.5,0,89.6-8.9,131.2-26.5c40.1-17,76.1-41.3,107.1-72.2c31-31,55.2-66.9,72.2-107.1
			c17.6-41.6,26.5-85.7,26.5-131.2S1156.9,942.1,1139.4,900.6L1139.4,900.6z M829,707.9c141.1,0,261.3,90.3,305.6,216.6
			c-54.8,0-107.9,0-156.5,0c-3.9,68.3-8.5,137.3-11.7,193.6L828.9,965.1l-137.7,152.8c-3.6-66-11-193.6-11-193.6H523.4
			C567.9,798.3,688.2,707.9,829,707.9z"/>
		<path id="path8_1_" class="st3" d="M1138.7,936.2H989l-12.1,211.5c-15.6-18-140-155.1-148.2-164.8c-4.9,5.5-148,164.4-148,164.4
			l-12-211H519.3c-9.2,30.1-14.2,61.9-14.2,94.9c0,178.6,145.2,323.9,323.9,323.9s323.9-145.3,323.9-323.9
			C1152.9,998.4,1147.8,966.1,1138.7,936.2L1138.7,936.2z M829,1332.6c-164.4,0-297.7-133.4-297.7-297.7c0-25.7,3.1-50.3,9.2-74
			h105.1c0.6,10.7,14.3,249,14.3,249l169.4-187.1l170.2,187.8c0,0,0,0.1,14.5-249.7h104c6,23.6,8.8,48.5,8.8,74
			C1126.7,1199.2,993.4,1332.6,829,1332.6L829,1332.6z"/>
	</g>
</g>
<g id="Brand_1_">
</g>
</svg>
