<?xml version="1.0" encoding="UTF-8" standalone="no"?>
<svg
   xmlns:dc="http://purl.org/dc/elements/1.1/"
   xmlns:cc="http://creativecommons.org/ns#"
   xmlns:rdf="http://www.w3.org/1999/02/22-rdf-syntax-ns#"
   xmlns:svg="http://www.w3.org/2000/svg"
   xmlns="http://www.w3.org/2000/svg"
   xmlns:sodipodi="http://sodipodi.sourceforge.net/DTD/sodipodi-0.dtd"
   xmlns:inkscape="http://www.inkscape.org/namespaces/inkscape"
   inkscape:version="1.0 (4035a4fb49, 2020-05-01)"
   height="653"
   width="2454"
   sodipodi:docname="wownerotext.svg"
   id="svg37"
   version="1.1"
   viewBox="0 0 2454.0001 653.00001">
  <metadata
     id="metadata41">
    <rdf:RDF>
      <cc:Work
         rdf:about="">
        <dc:format>image/svg+xml</dc:format>
        <dc:type
           rdf:resource="http://purl.org/dc/dcmitype/StillImage" />
        <dc:title>Asset 1</dc:title>
      </cc:Work>
    </rdf:RDF>
  </metadata>
  <sodipodi:namedview
     inkscape:current-layer="svg37"
     inkscape:window-maximized="1"
     inkscape:window-y="54"
     inkscape:window-x="-8"
     inkscape:cy="326.26001"
     inkscape:cx="1227"
     inkscape:zoom="0.31621842"
     showgrid="false"
     id="namedview39"
     inkscape:window-height="715"
     inkscape:window-width="1360"
     inkscape:pageshadow="2"
     inkscape:pageopacity="0"
     guidetolerance="10"
     gridtolerance="10"
     objecttolerance="10"
     borderopacity="1"
     bordercolor="#666666"
     pagecolor="#ffffff" />
  <defs
     id="defs4">
    <style
       id="style2">.cls-1{fill:#fc0;}.cls-2{fill:#ff2ad4;}.cls-3{fill:#fff;}.cls-4{fill:none;}</style>
  </defs>
  <title
     id="title6">Asset 1</title>
  <g
     transform="translate(2.2149628,1.2897255)"
     data-name="Layer 2"
     id="Layer_2">
    <g
       id="Identity">
      <path
         id="path8"
         d="M 181.54,221.7 192.26,408.33 325.1,260.82 457.9,408.57 c 0,0 9.62,-158.06 11.28,-186.94 47.06,0 98.15,0 151,0 -42.71,-121.85 -158.72,-209 -295,-209 -136,0 -252,87.27 -294.89,208.75 19.88,0.25 149.93,0.32 151.25,0.32 z"
         class="cls-1" />
      <path
         id="path10"
         d="m 624.87,198.62 a 326.26,326.26 0 1 0 25.56,126.59 324.18,324.18 0 0 0 -25.56,-126.59 z m -299.66,-186 c 136.26,0 252.27,87.2 295,209.05 -52.86,0 -104,0 -151,0 -3.81,66 -8.22,132.29 -11.26,186.71 L 325.1,260.82 192.21,408.34 C 188.73,344.68 181.54,221.7 181.54,221.7 131.47,221.56 78.1,222.05 30.32,221.33 73.24,99.85 189.22,12.58 325.21,12.58 Z"
         class="cls-2" />
      <path
         id="path12"
         d="m 624.13,233 -144.39,0.21 -11.68,203.88 C 453,419.72 333,287.26 325,278 320.31,283.28 182,436.69 182,436.69 L 170.45,233 H 26.28 a 311.76,311.76 0 0 0 -13.7,91.64 c 0,172.39 140.24,312.63 312.63,312.63 172.39,0 312.64,-140.27 312.64,-312.64 A 315.7,315.7 0 0 0 624.13,233 Z M 325.21,615.59 C 166.48,615.59 37.79,486.91 37.79,328.17 a 288.23,288.23 0 0 1 9.05,-71.83 l 101.34,0.32 C 148.78,267 162,497.05 162,497.05 l 163.48,-180.6 164.29,181.28 14,-241.19 100.3,-0.25 a 293.5,293.5 0 0 1 8.58,71.88 C 612.63,486.91 484,615.59 325.21,615.59 Z"
         class="cls-3" />
    </g>
    <g
       id="Brand">
      <path
         id="path15"
         d="m 2143.54,287.15 a 22,22 0 0 0 -10.62,-8.08 c -4.45,-1.68 -6.37,-2.49 -17.23,-2.49 h -54.16 v 47.81 h 55.89 c 14.2,0 16.74,-1.84 22.11,-5.58 v 0 q 8,-5.54 8,-18.38 a 22.32,22.32 0 0 0 -3.99,-13.28 z"
         class="cls-4" />
      <path
         id="path17"
         d="m 2336.08,274.47 q -30.91,0 -51.9,21.48 -20.99,21.48 -21.07,54.6 0,36.94 26.48,58.4 a 72.52,72.52 0 0 0 47.2,16.79 q 30.15,0 51.29,-21.74 v 0 q 21.26,-21.86 21.23,-53.72 -0.03,-31.86 -21.38,-53.81 -21.29,-21.99 -51.85,-22 z"
         class="cls-4" />
      <path
         id="path19"
         d="m 1144.28,274.47 q -30.91,0 -51.9,21.48 -20.99,21.48 -21.07,54.6 0,36.94 26.49,58.4 a 72.48,72.48 0 0 0 47.2,16.79 q 30.15,0 51.29,-21.74 v 0 q 21.24,-21.86 21.22,-53.72 -0.02,-31.86 -21.37,-53.81 -21.3,-21.99 -51.86,-22 z"
         class="cls-4" />
      <path
         id="path21"
         d="m 2417.69,267.18 v 0 Q 2383.75,233 2336.49,233 a 116.4,116.4 0 0 0 -100.61,58.1 115.73,115.73 0 0 0 -15.44,58.72 q 0,47.64 33.17,82.28 33.17,34.64 83.18,34.65 47.8,0 81.36,-33.72 33.56,-33.72 33.51,-82.48 0,-49.14 -33.97,-83.37 z M 2388.08,404 v 0 q -21.14,21.76 -51.29,21.74 a 72.52,72.52 0 0 1 -47.2,-16.79 q -26.49,-21.45 -26.48,-58.4 0,-33.09 21.07,-54.6 21.07,-21.51 51.9,-21.48 30.52,0 51.85,22 21.33,22 21.38,53.81 0,31.92 -21.23,53.72 z"
         class="cls-2" />
      <path
         id="path23"
         d="m 2179.53,339.41 c 7.38,-10.35 11,-23.15 11,-38.54 0,-14.59 -3.3,-27.28 -10,-38 A 56.75,56.75 0 0 0 2154.12,240 q -16.44,-6.91 -55.2,-6.93 h -81.85 V 466.7 h 44.46 v -98.94 h 38.8 l 52.59,98.94 h 48.63 l -55.3,-103.87 q 22.2,-7.98 33.28,-23.42 z m -40,-20.6 v 0 c -5.37,3.74 -7.91,5.58 -22.11,5.58 h -55.89 v -47.81 h 54.16 c 10.86,0 12.78,0.81 17.23,2.49 a 22,22 0 0 1 10.62,8.08 22.32,22.32 0 0 1 4,13.28 q -0.04,12.84 -8.01,18.38 z"
         class="cls-2" />
      <polygon
         id="polygon25"
         points="1861.98,276.52 1969.29,276.52 1969.29,233 1817.79,233 1817.79,466.66 1969.29,466.66 1969.29,422.95 1861.98,422.95 1861.98,367.12 1969.29,367.12 1969.29,324.35 1861.98,324.35 "
         class="cls-2" />
      <polygon
         id="polygon27"
         points="1770.32,233 1725.87,233 1725.87,386.74 1625.63,233 1583.07,233 1583.07,466.65 1627.52,466.65 1627.52,313.39 1727.6,466.65 1770.32,466.65 "
         class="cls-2" />
      <path
         id="path29"
         d="M 1225.89,267.18 Q 1191.95,233 1144.69,233 a 116.41,116.41 0 0 0 -100.6,58.11 115.73,115.73 0 0 0 -15.44,58.72 q 0,47.64 33.16,82.28 33.16,34.64 83.19,34.64 47.8,0 81.35,-33.72 33.55,-33.72 33.52,-82.48 0,-49.14 -34,-83.37 z M 1196.29,404 v 0 q -21.15,21.76 -51.29,21.74 A 72.48,72.48 0 0 1 1097.8,409 q -26.5,-21.45 -26.49,-58.4 0,-33.09 21.07,-54.6 21.07,-21.51 51.9,-21.48 30.53,0 51.86,22 21.33,22 21.37,53.81 0,31.87 -21.22,53.67 z"
         class="cls-2" />
      <polygon
         id="polygon31"
         points="874.24,303.68 928.24,466.65 971.77,466.65 1012.1,232.99 968.73,232.99 943.14,380.56 894.08,232.99 854.88,232.99 805.16,380.56 780.07,232.99 737.18,232.99 776.55,466.65 819.43,466.65 "
         class="cls-2" />
      <polygon
         id="polygon33"
         points="1412.51,303.68 1466.5,466.65 1510.03,466.65 1550.37,232.99 1507,232.99 1481.4,380.56 1432.35,232.99 1393.14,232.99 1343.43,380.56 1318.33,232.99 1275.44,232.99 1314.81,466.65 1357.69,466.65 "
         class="cls-2" />
    </g>
  </g>
</svg>
