<?xml version="1.0" encoding="utf-8"?>
<!-- Generator: Adobe Illustrator 24.0.1, SVG Export Plug-In . SVG Version: 6.00 Build 0)  -->
<svg version="1.1"
	 id="svg24" inkscape:version="1.0 (4035a4fb49, 2020-05-01)" sodipodi:docname="wownero.svg" xmlns:cc="http://creativecommons.org/ns#" xmlns:dc="http://purl.org/dc/elements/1.1/" xmlns:inkscape="http://www.inkscape.org/namespaces/inkscape" xmlns:rdf="http://www.w3.org/1999/02/22-rdf-syntax-ns#" xmlns:sodipodi="http://sodipodi.sourceforge.net/DTD/sodipodi-0.dtd" xmlns:svg="http://www.w3.org/2000/svg"
	 xmlns="http://www.w3.org/2000/svg" xmlns:xlink="http://www.w3.org/1999/xlink" x="0px" y="0px" viewBox="0 0 600 600"
	 style="enable-background:new 0 0 600 600;" xml:space="preserve">
<style type="text/css">
	.st0{fill:#FF2AD4;}
	.st1{fill:#FFCC00;}
	.st2{fill:#FFFFFF;}
</style>
<g id="Identity" transform="matrix(0.92248086,0,0,0.92248086,-442.13585,-627.93272)">
	<g id="g10">
		<path id="path6" class="st0" d="M1103.8,879.4c-16.4-38.7-39.8-73.4-69.6-103.3c-29.9-29.9-64.5-53.2-103.3-69.6
			c-40.1-17-82.6-25.6-126.5-25.6s-86.4,8.6-126.5,25.6c-38.7,16.4-73.4,39.8-103.3,69.6c-29.9,29.9-53.2,64.5-69.6,103.3
			c-17,40.1-25.6,82.6-25.6,126.5s8.6,86.4,25.6,126.5c16.4,38.7,39.8,73.4,69.6,103.3c29.9,29.9,64.5,53.2,103.3,69.6
			c40.1,17,82.6,25.6,126.5,25.6s86.4-8.6,126.5-25.6c38.7-16.4,73.4-39.8,103.3-69.6c29.9-29.9,53.2-64.5,69.6-103.3
			c17-40.1,25.6-82.6,25.6-126.5S1120.7,919.5,1103.8,879.4L1103.8,879.4z"/>
		<path id="path4" class="st1" d="M661,902.2l10.6,186.7l132.8-147.3L937,1089.2c0,0,9.6-157.9,11.3-186.7c47,0,98.1,0,150.8,0
			c-42.7-121.8-158.5-208.9-294.7-208.9c-135.8,0-251.7,87.2-294.6,208.6C529.8,902.4,661,902.2,661,902.2z"/>
		<path id="path8" class="st2" d="M1103.1,913.8H958.8l-11.7,203.9c-15-17.4-135-149.6-142.9-158.9
			c-4.7,5.3-142.7,158.5-142.7,158.5l-11.6-203.5h-144c-8.9,29-13.7,59.7-13.7,91.5c0,172.2,140,312.3,312.3,312.3
			s312.3-140.1,312.3-312.3C1116.8,973.7,1111.9,942.6,1103.1,913.8L1103.1,913.8z M804.5,1296c-158.5,0-287.1-128.6-287.1-287.1
			c0-24.8,3-48.5,8.9-71.4h101.3c0.6,10.3,13.8,240.1,13.8,240.1l163.3-180.4l164.1,181.1c0,0,0,0.1,14-240.8h100.3
			c5.8,22.8,8.5,46.8,8.5,71.4C1091.6,1167.4,963,1296,804.5,1296L804.5,1296z"/>
	</g>
</g>
</svg>
